<svg viewBox="0 0 2970 2100" xmlns="http://www.w3.org/2000/svg">
  <style>
    .bg { fill: #ffffff; }
    .room { fill: #ffffff; }
    .wall-ext { fill: none; stroke: #000000; stroke-width: 8; stroke-linecap: square; stroke-linejoin: miter; }
    .wall-int { fill: none; stroke: #000000; stroke-width: 4; stroke-linecap: square; }
    .window { fill: #e0f7fa; stroke: #000000; stroke-width: 2; }
    .door-swing { fill: rgba(0, 188, 212, 0.15); stroke: #00bcd4; stroke-width: 2; }
    .dim-line { fill: none; stroke: #cc0000; stroke-width: 2; }
    .dim-text { fill: #cc0000; font-family: sans-serif; font-size: 16px; text-anchor: middle; }
    .room-text { fill: #333333; font-family: sans-serif; font-size: 22px; font-weight: bold; text-anchor: middle; letter-spacing: 2px; }
    .room-subtext { fill: #666666; font-family: sans-serif; font-size: 14px; text-anchor: middle; }
    .title-block { fill: #ffffff; stroke: #000000; stroke-width: 4; }
    .title-text-main { fill: #000000; font-family: sans-serif; font-size: 36px; font-weight: bold; text-anchor: middle; letter-spacing: 4px; }
    .title-text-sub { fill: #333333; font-family: sans-serif; font-size: 20px; text-anchor: middle; letter-spacing: 2px; }
  </style>

  <rect width="100%" height="100%" class="bg" />

  <g transform="translate(1110, 300)">

    <g id="habitaciones">
      <rect x="0" y="0" width="750" height="1500" class="room" />
    </g>

    <g id="cotas">
      <line x1="0" y1="-80" x2="750" y2="-80" class="dim-line" />
      <line x1="0" y1="-95" x2="0" y2="-65" class="dim-line" />
      <line x1="750" y1="-95" x2="750" y2="-65" class="dim-line" />
      <text x="375" y="-95" class="dim-text">7.50 m</text>

      <line x1="830" y1="0" x2="830" y2="1500" class="dim-line" />
      <line x1="815" y1="0" x2="845" y2="0" class="dim-line" />
      <line x1="815" y1="1500" x2="845" y2="1500" class="dim-line" />
      <text x="845" y="750" transform="rotate(-90 845 750)" class="dim-text">15.00 m</text>

      <line x1="-80" y1="300" x2="-80" y2="800" class="dim-line" />
      <line x1="-95" y1="300" x2="-65" y2="300" class="dim-line" />
      <line x1="-95" y1="800" x2="-65" y2="800" class="dim-line" />
      <text x="-95" y="550" transform="rotate(-90 -95 550)" class="dim-text">5.00 m</text>

      <line x1="0" y1="320" x2="340" y2="320" class="dim-line" />
      <text x="170" y="315" class="dim-text">3.46 m</text>
      
      <line x1="340" y1="320" x2="600" y2="320" class="dim-line" />
      <text x="470" y="315" class="dim-text">2.60 m</text>
    </g>

    <g id="puertas-ventanas">
      <rect x="50" y="-5" width="200" height="10" class="window" />
      <rect x="420" y="-5" width="120" height="10" class="window" />
      <rect x="50" y="1095" width="200" height="10" class="window" />
      <rect x="510" y="1095" width="200" height="10" class="window" />

      <path d="M 340 0 L 340 90 A 90 90 0 0 1 430 0 Z" class="door-swing" />
      <path d="M 340 210 L 250 210 A 90 90 0 0 0 340 300 Z" class="door-swing" />
      <path d="M 340 380 L 250 380 A 90 90 0 0 0 340 470 Z" class="door-swing" />
      <path d="M 340 380 L 430 380 A 90 90 0 0 1 340 470 Z" class="door-swing" />
      <path d="M 600 230 L 670 230 A 70 70 0 0 1 600 300 Z" class="door-swing" />
      <path d="M 250 1100 L 250 1010 A 90 90 0 0 1 340 1100 Z" class="door-swing" />
      <path d="M 550 1100 L 550 1010 A 90 90 0 0 0 460 1100 Z" class="door-swing" />
    </g>

    <g id="muros-interiores">
      <line x1="0" y1="300" x2="750" y2="300" class="wall-int" />
      <line x1="600" y1="150" x2="750" y2="150" class="wall-int" />
      <line x1="600" y1="550" x2="750" y2="550" class="wall-int" />
      <line x1="0" y1="800" x2="750" y2="800" class="wall-int" />
      <line x1="340" y1="1000" x2="460" y2="1000" class="wall-int" />
      <line x1="0" y1="1100" x2="750" y2="1100" class="wall-int" />

      <line x1="340" y1="0" x2="340" y2="1100" class="wall-int" />
      <line x1="600" y1="0" x2="600" y2="800" class="wall-int" />
      <line x1="460" y1="800" x2="460" y2="1100" class="wall-int" />
    </g>

    <g id="muros-exteriores">
      <rect x="0" y="0" width="750" height="1500" class="wall-ext" />
    </g>

    <g id="textos">
      <text x="170" y="150" class="room-text">DORMITORIO</text>
      <text x="470" y="150" class="room-text">SALA</text>
      <text x="470" y="-30" class="room-subtext">INGRESO ↓</text>
      
      <text x="675" y="85" class="room-text" style="font-size: 16px;">DEPÓSITO</text>
      <text x="675" y="235" class="room-text" style="font-size: 16px;">BAÑO</text>
      
      <text x="170" y="550" class="room-text">COCINA</text>
      
      <text x="470" y="540" class="room-text">DORMITORIO</text>
      <text x="470" y="570" class="room-text">PRINCIPAL</text>
      
      <text x="675" y="435" class="room-text" style="font-size: 16px;" transform="rotate(-90 675 435)">LAVANDERÍA</text>
      <text x="675" y="685" class="room-text" style="font-size: 16px;" transform="rotate(-90 675 685)">PASILLO</text>
      
      <text x="170" y="960" class="room-text">DORMITORIO 2</text>
      <text x="400" y="910" class="room-text" style="font-size: 16px;">BAÑO 2</text>
      <text x="605" y="960" class="room-text">DORMITORIO 3</text>
      
      <text x="375" y="1310" class="room-text">JARDÍN</text>
    </g>

  </g>

  <g id="cajetin" transform="translate(100, 1920)">
    <rect x="0" y="0" width="2770" height="120" class="title-block" />
    <text x="1385" y="55" class="title-text-main">PLANO DE DISTRIBUCIÓN ARQUITECTÓNICA</text>
    <text x="1385" y="95" class="title-text-sub">PLANTA GENERAL • ESCALA 1:100 • FORMATO A4</text>
  </g>

</svg>
